<?xml version="1.0" encoding="utf-8"?>
<!-- Generator: Adobe Illustrator 25.4.1, SVG Export Plug-In . SVG Version: 6.00 Build 0)  -->
<svg version="1.1" id="Layer_1" xmlns="http://www.w3.org/2000/svg" xmlns:xlink="http://www.w3.org/1999/xlink" x="0px" y="0px"
	 viewBox="0 0 500 400" style="enable-background:new 0 0 500 400;" xml:space="preserve">
<style type="text/css">
	.st0{fill:#808000;}
	.st1{fill:#FFFDD0;}
	.st2{fill:#FFFFFF;}
</style>
<g>
	<g>
		<path class="st0" d="M221.03,194.33c0.16-0.13,0.35-0.29,0.54-0.44c0.73,0.3,1,0.95,1.42,1.45c0.87,1.04,1.68,2.14,2.53,3.2
			c0.86,1.06,1.7,2.13,2.64,3.12c0.53,0.56,1.21,0.98,1.86,1.41c1.3,0.87,2.76,1.15,4.37,1c0.13-0.12,0.29-0.27,0.46-0.43
			c0.03-0.82-0.48-1.35-1.04-1.71c-0.72-0.47-1.53-0.81-2.33-1.15c-0.98-0.41-1.49-0.71-2.25-1.58c0.04-0.18,0.08-0.42,0.14-0.74
			c0.42,0.04,0.78,0,1.09,0.11c0.93,0.31,1.87,0.61,2.76,1.03c2.13,0.99,4.23,2.04,6.07,3.55c0.88,0.72,1.66,1.52,2.41,2.38
			c0.84,0.97,1.96,1.62,2.93,2.14c0.9,0.1,1.61,0.21,2.33,0.26c0.43,0.02,0.86-0.06,1.29-0.1c0.2-0.02,0.4-0.05,0.61-0.05
			c1.9,0.05,3.73-0.32,5.56-0.75c2.04-0.48,3.96-1.27,5.81-2.22c1.6-0.82,3.1-1.8,4.49-2.95c0.65-0.54,1.33-1.04,1.93-1.62
			c0.69-0.67,1.35-1.37,1.94-2.12c0.75-0.95,1.45-1.95,2.12-2.96c0.98-1.48,1.76-3.05,2.4-4.71c0.51-1.32,0.94-2.66,1.26-4.04
			c0.3-1.27,0.5-2.56,0.11-3.86c-0.32-1.06-0.84-2-1.74-2.9c0.56,1.55,1.07,2.95,1.63,4.49c-2.24-0.76-4.01-1.83-4.98-3.91
			c-0.71-1.52-0.72-4.52-0.04-5.74c2.42,0.7,4.5,1.84,5.6,4.3c-0.01-1.73-0.33-3.41-0.51-5.12c0.21,0.81,0.42,1.62,0.67,2.56
			c0.2-1.58,0.81-2.85,2-3.75c1.15-0.87,2.46-1.36,3.93-1.35c0.49,3.7-1.32,6.64-5.29,7.16c0.33-1.59,1.33-2.65,2.53-3.58
			c-1.45,0.39-2.37,1.34-2.9,2.81c0.06,0.75-0.01,1.58,0.12,2.42c0.13,0.81,0.17,1.68-0.08,2.51c-0.05,0.16-0.04,0.35-0.04,0.52
			c0.05,1.9-0.36,3.73-0.82,5.55c-0.4,1.57-0.96,3.08-1.63,4.56c-0.57,1.28-1.26,2.48-1.98,3.66c-0.57,0.93-1.28,1.79-2,2.62
			c-0.84,0.97-1.73,1.89-2.62,2.81c-1.26,1.3-2.73,2.35-4.25,3.29c-1.17,0.72-2.42,1.35-3.67,1.94c-1.7,0.81-3.49,1.37-5.32,1.77
			c-1.27,0.28-2.55,0.44-3.84,0.56c-3,0.28-6,0.12-9,0.11c-1.17,0-2.36-0.09-3.51-0.43c-0.27-0.08-0.56-0.12-0.85-0.16
			c-1.52-0.25-2.81-1.03-4.14-1.72c-1.67-0.86-3.28-1.85-4.87-2.86c-0.96-0.62-1.63-1.44-2.21-2.39c-1.02-1.69-1.92-3.45-2.79-5.22
			c-0.09-0.18-0.18-0.36-0.29-0.53C221.03,195.66,220.97,195.45,221.03,194.33z"/>
		<path class="st1" d="M219.93,188.05c-0.17-0.9-0.3-1.81-0.52-2.7c-0.28-1.11-0.29-2.23-0.38-3.35c-0.06-0.72-0.2-1.45-0.11-2.16
			c0.13-1.03,0.18-2.07,0.27-3.1c0.11-1.42,0.54-2.77,0.79-4.15c0.13-0.73,0.48-1.42,0.74-2.12c0.66-1.83,1.53-3.56,2.57-5.21
			c0.82-1.3,1.76-2.5,2.75-3.68c1.57-1.87,3.39-3.42,5.38-4.78c2.08-1.43,4.32-2.55,6.71-3.39c1.09-0.39,2.2-0.67,3.31-0.97
			c0.91-0.24,1.87-0.3,2.82-0.41c1-0.12,2-0.23,3.01-0.31c0.34-0.02,0.69,0.16,1.02,0.11c2.12-0.32,4.25-0.17,6.37-0.12
			c1.4,0.03,2.81,0.21,4.19,0.55c1.56,0.39,2.96,1.1,4.37,1.83c1.54,0.8,3.01,1.73,4.51,2.61c1.15,0.67,1.91,1.65,2.58,2.76
			c0.96,1.59,1.83,3.23,2.63,4.91c0.09,0.18,0.19,0.36,0.31,0.53c0.45,0.65,0.65,1.35,0.51,2.18c-0.18,0.11-0.37,0.23-0.54,0.34
			c-0.65-0.18-0.87-0.78-1.24-1.21c-0.95-1.09-1.85-2.23-2.71-3.39c-0.93-1.24-1.96-2.38-3.1-3.42c-1.12-1.03-2.39-1.82-3.97-1.94
			c-0.34-0.03-0.68-0.12-1.02-0.16c-0.42-0.05-0.8,0.06-1.15,0.35c-0.2,0.52-0.03,0.95,0.32,1.34c0.51,0.58,1.11,1.01,1.84,1.25
			c0.94,0.31,1.84,0.67,2.67,1.24c0.39,0.27,0.62,0.58,0.73,1.05c-0.26,0.54-0.74,0.43-1.14,0.32c-0.75-0.2-1.49-0.46-2.21-0.75
			c-2.43-0.98-4.72-2.21-6.78-3.84c-0.82-0.65-1.52-1.45-2.25-2.2c-0.57-0.59-1.2-1.1-1.89-1.53c-0.32-0.2-0.65-0.38-0.9-0.53
			c-6.2-0.72-11.94,0.34-17.28,3.45c-5.32,3.1-9.17,7.48-11.58,13.12c-2.42,5.66-2.69,11.51-1.39,17.48
			C220.07,188.05,220,188.05,219.93,188.05z"/>
		<path class="st1" d="M250.64,167.92c-0.02,0.17-0.01,0.34-0.05,0.5c-0.34,1.35,0.04,2.3,1.26,2.88c1.41,0.68,2.86,1.27,4.25,1.97
			c1.04,0.52,2.06,1.1,2.8,2.02c0.29,0.36,0.61,0.73,0.75,1.15c0.26,0.79,0.51,1.58,0.65,2.41c0.11,0.7,0.18,1.39,0.13,2.07
			c-0.09,1.27-0.39,2.49-1.04,3.63c0.07-0.53,0.15-1.06,0.22-1.59c0.04-0.28,0.13-0.57,0.11-0.85c-0.11-1.83-0.44-3.61-1.35-5.23
			c-0.24-0.42-0.58-0.82-0.97-1.1c-0.79-0.58-1.63-1.1-2.47-1.61c-1.04-0.63-2.12-1.19-3.14-1.85c-0.65-0.42-1.28-0.87-1.56-1.68
			C250.01,169.94,250.05,168.86,250.64,167.92z"/>
		<path class="st1" d="M256.01,199.87c-1.19-1.9-1.92-3.94-2.34-6.07c-0.29-1.46-0.35-2.96-0.1-4.49c0.27-1.67,0.94-3.15,1.69-4.61
			c0.66-1.28,1.24-2.59,1.59-4.12c0.25,0.85,0.01,1.57-0.17,2.26c-0.37,1.45-0.85,2.86-1.26,4.3c-0.16,0.58-0.31,1.17-0.39,1.76
			c-0.11,0.83-0.27,1.66-0.2,2.51c0.03,0.38,0,0.76,0.01,1.14c0.02,2.32,0.39,4.59,1.13,6.79c0.04,0.11,0.06,0.22,0.09,0.33
			C256.07,199.71,256.05,199.74,256.01,199.87z"/>
		<path class="st1" d="M239.42,198.38c0.01-0.11,0-0.23,0.04-0.32c0.59-1.19,1.01-2.45,1.26-3.76c0.04-0.23,0.09-0.45,0.09-0.68
			c0.01-0.96,0.04-1.93-0.01-2.89c-0.04-0.71-0.19-1.42-0.28-2.13c-0.07-0.51-0.12-1.03-0.22-1.53c-0.2-1.01-0.44-2.02-0.66-3.03
			c-0.26-1.17-0.27-2.34-0.01-3.51c0.08-0.35,0.14-0.71,0.31-1.06c0,0.31,0.01,0.63,0,0.94c-0.07,1.41,0.27,2.76,0.8,4.04
			c0.57,1.36,1.09,2.75,1.24,4.2c0.13,1.21,0.53,2.46,0.08,3.7C241.98,194.68,240.8,196.56,239.42,198.38z"/>
		<path class="st1" d="M268.83,166.88c0.88,1.03,1.59,2.06,2.14,3.21c0.32,0.67,0.36,0.91,0.33,1.83c-0.32,0.4-0.68,0.85-0.98,1.23
			c-0.44,0.11-0.77,0.19-1.07,0.27c-1.24-0.19-1.98-0.83-2.08-2.34c0.17-0.53,0.39-1.29,0.65-2.05
			C268.08,168.3,268.41,167.61,268.83,166.88z"/>
		<path class="st1" d="M250.8,167.48c0.12-0.45,0.21-0.81,0.32-1.15c0.37-1.23,0.49-2.5,0.38-3.78c-0.07-0.91-0.42-1.77-1.07-2.43
			c-0.7-0.71-1.67-1.11-2.63-1.34c-1.12-0.27-2.34-0.27-3.41,0.2c-0.41,0.18-0.79,0.42-1.12,0.71c-0.69,0.6-1.16,1.4-1.5,2.24
			c-0.07,0.18-0.14,0.35-0.2,0.53c-0.12-0.77,0.19-1.3,0.39-1.81c0.58-1.46,1.66-2.47,3.14-2.93c0.92-0.29,1.89-0.37,2.9-0.13
			c0.8,0.18,1.55,0.39,2.25,0.81c1.34,0.8,2.05,1.99,2.14,3.54c0.09,1.54-0.21,2.99-0.91,4.36
			C251.29,166.67,251.29,167.15,250.8,167.48z"/>
		<path class="st1" d="M241.83,172.03c-0.9,0.48-1.79,0.96-2.7,1.42c-1.44,0.73-2.82,2-3.2,3.63c-0.36,1.57-0.26,3.36-0.13,4.95
			c0.02,0.29,0.4,3.42,0.49,3.41c-0.06,0.01-0.11,0.02-0.17,0.03c-0.28-0.75-0.6-1.49-0.82-2.26c-0.3-1.05-0.62-2.11-0.75-3.18
			c-0.14-1.25-0.35-2.6,0.09-3.82c0.38-1.07,1.26-2,2.2-2.62c0.68-0.45,1.46-0.73,2.24-0.96c0.8-0.23,1.59-0.5,2.39-0.75
			c0.1-0.03,0.22-0.02,0.33-0.02C241.8,171.91,241.81,171.97,241.83,172.03z"/>
		<path class="st1" d="M250.02,181.68c0.23,0.22,0.46,0.44,0.7,0.67c0.08,0.23,0.15,0.48,0.22,0.68c-0.12,0.61-0.32,1.15-1.09,1.41
			c-0.24,0-0.64,0-1.13,0c-0.2-0.22-0.43-0.48-0.7-0.78c0-0.36,0-0.76,0-1.28c0.21-0.18,0.5-0.42,0.84-0.7
			C249.2,181.68,249.6,181.68,250.02,181.68z"/>
		<path class="st0" d="M226.36,198.79c-0.46-0.14-0.78-0.44-0.97-0.83c-0.51-1.01-1.4-1.84-1.62-3.01c0.75-0.19,0.75-0.19,1.5,0.18
			C225.91,196.21,226,197.53,226.36,198.79z"/>
		<path class="st1" d="M271.01,166.51c-0.81,0.21-1.28-0.14-1.75-0.69c-0.28-0.99-0.58-2.07-0.89-3.16c0.31-0.02,0.55,0.14,0.7,0.38
			c0.61,0.94,1.22,1.89,1.8,2.85C270.96,166.03,270.96,166.25,271.01,166.51z"/>
		<path class="st0" d="M227.5,197.8c-0.04,0.9,0.06,1.73-0.08,2.75c-0.81-1.37-0.79-2.73-1.04-4.14
			C227.08,196.72,227.22,197.3,227.5,197.8z"/>
		<path class="st1" d="M267.31,160.91c0.85,1.33,0.84,2.68,1.07,4.07c-0.68-0.31-0.82-0.89-1.07-1.36
			C267.31,162.75,267.31,161.92,267.31,160.91z"/>
		<path class="st1" d="M247.7,171.1c0,0.4-0.32,0.72-0.72,0.72s-0.72-0.32-0.72-0.72s0.32-0.72,0.72-0.72S247.7,170.7,247.7,171.1z"
			/>
		<path class="st1" d="M248.69,172.61c0,0.46-0.37,0.83-0.83,0.83c-0.46,0-0.83-0.37-0.83-0.83c0-0.46,0.37-0.83,0.83-0.83
			C248.31,171.78,248.69,172.15,248.69,172.61z"/>
		<path class="st1" d="M249.95,174.49c0,0.64-0.52,1.16-1.16,1.16c-0.64,0-1.16-0.52-1.16-1.16c0-0.64,0.52-1.16,1.16-1.16
			C249.43,173.33,249.95,173.85,249.95,174.49z"/>
		<path class="st1" d="M250.43,177.02c0,0.64-0.52,1.16-1.16,1.16c-0.64,0-1.16-0.52-1.16-1.16c0-0.64,0.52-1.16,1.16-1.16
			C249.91,175.86,250.43,176.38,250.43,177.02z"/>
		<circle class="st1" cx="249.6" cy="179.85" r="1.38"/>
		<circle class="st1" cx="249.43" cy="183.06" r="1.55"/>
		<circle class="st1" cx="248.99" cy="186.38" r="1.55"/>
		<path class="st1" d="M249.82,189.46c0,0.72-0.59,1.31-1.31,1.31c-0.72,0-1.31-0.59-1.31-1.31c0-0.72,0.59-1.31,1.31-1.31
			C249.23,188.15,249.82,188.73,249.82,189.46z"/>
		<path class="st1" d="M249.19,192.29c0,0.58-0.47,1.05-1.05,1.05s-1.05-0.47-1.05-1.05c0-0.58,0.47-1.05,1.05-1.05
			S249.19,191.72,249.19,192.29z"/>
		<path class="st1" d="M248.79,194.87c0,0.48-0.39,0.87-0.87,0.87c-0.48,0-0.87-0.39-0.87-0.87c0-0.48,0.39-0.87,0.87-0.87
			C248.4,194,248.79,194.39,248.79,194.87z"/>
		<path class="st1" d="M248.66,197.05c0,0.4-0.32,0.72-0.72,0.72c-0.4,0-0.72-0.32-0.72-0.72c0-0.4,0.32-0.72,0.72-0.72
			C248.34,196.33,248.66,196.65,248.66,197.05z"/>
		<path class="st1" d="M248.77,199.1c0,0.35-0.28,0.63-0.63,0.63c-0.35,0-0.63-0.28-0.63-0.63c0-0.35,0.28-0.63,0.63-0.63
			C248.49,198.47,248.77,198.75,248.77,199.1z"/>
	</g>
	<g>
		<path class="st2" d="M164.74,226.38c-0.04,3.46-2.16,6.93-6.87,6.93c-4.71,0-6.89-3.39-6.89-6.91c0-3.52,2.26-7.06,6.89-7.06
			C162.48,219.34,164.78,222.88,164.74,226.38z M153.47,226.44c0.06,2.2,1.24,4.55,4.4,4.55c3.16,0,4.34-2.37,4.38-4.57
			c0.04-2.26-1.22-4.78-4.38-4.78C154.71,221.64,153.41,224.18,153.47,226.44z"/>
		<path class="st2" d="M169.27,221.9h-4.25v-2.3c3.87,0,7.14,0,11.02,0v2.3h-4.25V233h-2.53V221.9z"/>
		<path class="st2" d="M186.7,233.02v-5.42h-6.58v5.42h-2.53v-13.39h2.53v5.64h6.58v-5.64h2.51v13.39H186.7z"/>
		<path class="st2" d="M201.56,233h-10.03c0-4.46,0-8.94,0-13.39h10.03v2.45h-7.52v3.08h7.25v2.35h-7.25v3.02h7.52V233z"/>
		<path class="st2" d="M215.39,233h-3l-3.9-4.48h-2.43V233h-2.53v-13.41c2.12,0,4.25,0.02,6.37,0.02c3.16,0.02,4.82,2.12,4.82,4.44
			c0,1.84-0.84,3.69-3.39,4.21l4.06,4.57V233z M206.05,221.96v4.29h3.85c1.61,0,2.3-1.07,2.3-2.14c0-1.07-0.71-2.14-2.3-2.14H206.05
			z"/>
		<path class="st2" d="M225.28,222.84c-0.46-0.77-1.72-1.49-3.18-1.49c-1.88,0-2.77,0.78-2.77,1.78c0,1.17,1.38,1.49,2.98,1.68
			c2.79,0.34,5.4,1.07,5.4,4.27c0,2.98-2.64,4.27-5.63,4.27c-2.74,0-4.84-0.84-5.84-3.29l2.1-1.09c0.59,1.47,2.14,2.12,3.77,2.12
			c1.59,0,3.08-0.55,3.08-2.01c0-1.26-1.32-1.78-3.1-1.97c-2.74-0.33-5.26-1.05-5.26-4.06c0-2.75,2.72-3.88,5.19-3.9
			c2.09,0,4.25,0.59,5.26,2.66L225.28,222.84z"/>
		<path class="st2" d="M229.68,233v-13.39h2.51V233H229.68z"/>
		<path class="st2" d="M246.34,226.19c0.06,3.39-2.01,6.81-6.7,6.81c-1.65,0-3.62,0-5.26,0v-13.39c1.65,0,3.62,0,5.26,0
			C244.23,219.61,246.28,222.88,246.34,226.19z M236.89,230.57h2.76c3.04,0,4.25-2.22,4.19-4.4c-0.06-2.09-1.28-4.17-4.19-4.17
			h-2.76V230.57z"/>
		<path class="st2" d="M257.99,233h-10.03c0-4.46,0-8.94,0-13.39h10.03v2.45h-7.52v3.08h7.25v2.35h-7.25v3.02h7.52V233z"/>
		<path class="st2" d="M267.26,221.9h-4.25v-2.3c3.86,0,7.14,0,11.02,0v2.3h-4.25V233h-2.53V221.9z"/>
		<path class="st2" d="M287.45,233h-3l-3.9-4.48h-2.43V233h-2.53v-13.41c2.12,0,4.25,0.02,6.37,0.02c3.16,0.02,4.82,2.12,4.82,4.44
			c0,1.84-0.84,3.69-3.39,4.21l4.06,4.57V233z M278.11,221.96v4.29h3.85c1.61,0,2.3-1.07,2.3-2.14c0-1.07-0.71-2.14-2.3-2.14H278.11
			z"/>
		<path class="st2" d="M297.98,230.47h-7l-1.15,2.53h-2.74l6.01-13.39h2.76l6.01,13.39h-2.76L297.98,230.47z M294.48,222.42
			l-2.49,5.7h4.97L294.48,222.42z"/>
		<path class="st2" d="M308.08,233.06h-2.62l-5.57-13.45h2.83l4.04,10.43l4.06-10.43h2.83L308.08,233.06z"/>
		<path class="st2" d="M325.18,233h-10.03c0-4.46,0-8.94,0-13.39h10.03v2.45h-7.52v3.08h7.25v2.35h-7.25v3.02h7.52V233z"/>
		<path class="st2" d="M329.66,219.61v11.06h6.89V233h-9.41v-13.39H329.66z"/>
		<path class="st2" d="M346.59,222.84c-0.46-0.77-1.72-1.49-3.18-1.49c-1.88,0-2.77,0.78-2.77,1.78c0,1.17,1.38,1.49,2.98,1.68
			c2.79,0.34,5.4,1.07,5.4,4.27c0,2.98-2.64,4.27-5.63,4.27c-2.74,0-4.84-0.84-5.84-3.29l2.1-1.09c0.59,1.47,2.14,2.12,3.77,2.12
			c1.59,0,3.08-0.55,3.08-2.01c0-1.26-1.32-1.78-3.1-1.97c-2.74-0.33-5.26-1.05-5.26-4.06c0-2.75,2.72-3.88,5.19-3.9
			c2.09,0,4.25,0.59,5.26,2.66L346.59,222.84z"/>
	</g>
	<g>
		<path class="st1" d="M185.33,245.59l-0.58,1.76h-0.75l1.9-5.58h0.87l1.91,5.58h-0.77l-0.6-1.76H185.33z M187.17,245.03l-0.55-1.61
			c-0.12-0.36-0.21-0.7-0.29-1.02h-0.02c-0.08,0.33-0.17,0.67-0.28,1.01l-0.55,1.62H187.17z"/>
		<path class="st1" d="M192.48,247.35v-5.58h0.79l1.79,2.83c0.41,0.65,0.74,1.24,1,1.81l0.02-0.01c-0.07-0.75-0.08-1.43-0.08-2.3
			v-2.34h0.68v5.58h-0.73l-1.77-2.83c-0.39-0.62-0.76-1.26-1.04-1.86l-0.02,0.01c0.04,0.7,0.06,1.38,0.06,2.3v2.39H192.48z"/>
		<path class="st1" d="M200.92,241.84c0.44-0.07,0.96-0.12,1.53-0.12c1.04,0,1.77,0.24,2.26,0.7c0.5,0.46,0.79,1.1,0.79,2
			c0,0.91-0.28,1.66-0.8,2.17c-0.52,0.52-1.38,0.8-2.47,0.8c-0.51,0-0.94-0.02-1.31-0.07V241.84z M201.64,246.77
			c0.18,0.03,0.45,0.04,0.73,0.04c1.54,0,2.38-0.86,2.38-2.37c0.01-1.32-0.74-2.15-2.26-2.15c-0.37,0-0.65,0.03-0.85,0.07V246.77z"
			/>
		<path class="st1" d="M214.88,242.37h-1.7v-0.61h4.13v0.61h-1.71v4.97h-0.73V242.37z"/>
		<path class="st1" d="M220.92,241.84c0.36-0.07,0.89-0.12,1.38-0.12c0.77,0,1.27,0.14,1.62,0.46c0.28,0.25,0.44,0.63,0.44,1.06
			c0,0.74-0.46,1.23-1.05,1.43v0.02c0.43,0.15,0.69,0.55,0.82,1.13c0.18,0.78,0.31,1.32,0.43,1.53h-0.75
			c-0.09-0.17-0.22-0.64-0.37-1.33c-0.17-0.77-0.46-1.06-1.12-1.09h-0.68v2.42h-0.72V241.84z M221.64,244.38h0.74
			c0.77,0,1.26-0.42,1.26-1.06c0-0.72-0.52-1.04-1.28-1.04c-0.35,0-0.6,0.03-0.71,0.07V244.38z"/>
		<path class="st1" d="M231.25,244.73h-2.17v2.01h2.42v0.6h-3.14v-5.58h3.02v0.61h-2.29v1.76h2.17V244.73z"/>
		<path class="st1" d="M236.32,245.59l-0.58,1.76h-0.75l1.9-5.58h0.87l1.91,5.58h-0.77l-0.6-1.76H236.32z M238.15,245.03l-0.55-1.61
			c-0.12-0.36-0.21-0.7-0.29-1.02h-0.02c-0.08,0.33-0.17,0.67-0.28,1.01l-0.55,1.62H238.15z"/>
		<path class="st1" d="M243.89,242.37h-1.7v-0.61h4.13v0.61h-1.71v4.97h-0.73V242.37z"/>
		<path class="st1" d="M254.64,244.89c-0.04-0.78-0.09-1.71-0.08-2.41h-0.02c-0.19,0.65-0.42,1.36-0.7,2.12l-0.99,2.71h-0.55
			l-0.9-2.66c-0.27-0.79-0.49-1.51-0.65-2.17h-0.02c-0.02,0.7-0.06,1.63-0.11,2.47l-0.15,2.39h-0.69l0.39-5.58h0.92l0.95,2.7
			c0.23,0.69,0.42,1.3,0.56,1.88h0.02c0.14-0.56,0.34-1.18,0.59-1.88l0.99-2.7h0.92l0.35,5.58h-0.7L254.64,244.89z"/>
		<path class="st1" d="M262.46,244.73h-2.17v2.01h2.42v0.6h-3.14v-5.58h3.02v0.61h-2.29v1.76h2.17V244.73z"/>
		<path class="st1" d="M266.63,247.35v-5.58h0.79l1.79,2.83c0.41,0.65,0.74,1.24,1,1.81l0.02-0.01c-0.07-0.75-0.08-1.43-0.08-2.3
			v-2.34h0.68v5.58h-0.73l-1.77-2.83c-0.39-0.62-0.76-1.26-1.04-1.86l-0.02,0.01c0.04,0.7,0.06,1.38,0.06,2.3v2.39H266.63z"/>
		<path class="st1" d="M276.13,242.37h-1.7v-0.61h4.13v0.61h-1.71v4.97h-0.73V242.37z"/>
		<path class="st1" d="M282.02,246.47c0.32,0.2,0.8,0.36,1.29,0.36c0.74,0,1.17-0.39,1.17-0.95c0-0.52-0.3-0.82-1.05-1.11
			c-0.91-0.32-1.48-0.8-1.48-1.58c0-0.87,0.72-1.52,1.81-1.52c0.57,0,0.99,0.13,1.23,0.27l-0.2,0.59c-0.18-0.1-0.56-0.27-1.06-0.27
			c-0.76,0-1.05,0.46-1.05,0.84c0,0.52,0.34,0.78,1.11,1.08c0.94,0.36,1.43,0.82,1.43,1.64c0,0.86-0.64,1.62-1.96,1.62
			c-0.54,0-1.13-0.17-1.42-0.36L282.02,246.47z"/>
		<path class="st1" d="M288.69,248.36c0.17-0.49,0.4-1.38,0.49-1.98l0.81-0.08c-0.19,0.7-0.56,1.62-0.79,2.01L288.69,248.36z"/>
		<path class="st1" d="M298.62,241.76h0.72v4.98h2.39v0.6h-3.11V241.76z"/>
		<path class="st1" d="M305.51,241.76h0.72v4.98h2.39v0.6h-3.11V241.76z"/>
		<path class="st1" d="M315.98,247.16c-0.27,0.13-0.8,0.27-1.48,0.27c-1.57,0-2.76-1-2.76-2.83c0-1.75,1.18-2.93,2.92-2.93
			c0.7,0,1.14,0.15,1.33,0.25l-0.17,0.59c-0.27-0.13-0.66-0.23-1.13-0.23c-1.31,0-2.18,0.84-2.18,2.3c0,1.37,0.79,2.25,2.15,2.25
			c0.44,0,0.89-0.09,1.18-0.23L315.98,247.16z"/>
	</g>
</g>
</svg>
